<svg height="32" width="227px" viewBox="0 0 227 32" xmlns="http://www.w3.org/2000/svg">
  <defs>
    <radialGradient id="q_EoPG__a" cx="50%" cy="50%" r="50%">
      <stop offset="0" stop-color="#fff">
      </stop>
      <stop offset=".627" stop-color="#fefefe">
      </stop>
      <stop offset=".781" stop-color="#fbfcfd" stop-opacity=".649">
      </stop>
      <stop offset=".853" stop-color="#fcfdfd" stop-opacity=".402">
      </stop>
      <stop offset=".929" stop-color="#fdfdfe" stop-opacity=".129">
      </stop>
      <stop offset="1" stop-color="#fefefe" stop-opacity="0">
      </stop>
    </radialGradient>
    <filter id="q_EoPG__b" height="100%" width="100%" x="0%" y="0%">
      <feGaussianBlur in="SourceGraphic">
      </feGaussianBlur>
    </filter>
  </defs>
  <g fill="none" fill-rule="evenodd">
    <g fill="#fff">
      <path d="M11.814 17.42h7.66c-1.075-3.804-3.111-10.121-3.83-11.925-.718 1.804-2.755 8.12-3.83 11.924zM22.105 28.77c-.35-1.483-1.015-4.14-1.344-5.23H10.529c-.34 1.097-.995 3.747-1.345 5.23H0C3.893 16.468 5.674 11.29 10.023.38h11.242c4.35 10.91 6.13 16.09 10.023 28.392zM41.379 28.771c-4.773 0-7.402-2.722-7.402-7.663V.379h8.592v19.084c0 2.39.656 3.007 3.189 3.007h8.341l1.272 6.301zM90.106 28.771h8.585V.38h-8.585zM67.38 22.633h2.423c5.262 0 7.357-2.35 7.357-8.286 0-5.576-2.548-7.83-7.66-7.83h-2.12zm-8.59 6.138V.38h11.867c8.724 0 14.828 3.56 14.828 13.968 0 10.175-4.879 14.424-14.449 14.424zM132.133 10.012c-3.357 0-6.242 1.753-7.69 4.619-1.03-2.985-3.407-4.619-6.763-4.619-2.95 0-5.519 1.336-7.053 3.618v-2.968h-3.01V28.91h3.01V17.517c1.332-3.053 3.49-4.6 6.418-4.6 3.335 0 5.026 1.966 5.026 5.845V28.91h3.013l-.034-2.443v-7.9c0-.303 0-.646-.025-.963 1.327-3.067 3.564-4.688 6.472-4.688 3.336 0 5.027 1.967 5.027 5.846V28.91h2.98V18.567c0-5.436-2.687-8.555-7.371-8.555M185.786 19.797c0 4.42-2.418 6.854-6.81 6.854-3.233 0-5.54-1.35-7.053-4.125v-5.49c1.513-2.777 3.82-4.126 7.053-4.126 4.392 0 6.81 2.446 6.81 6.887m-6.175-9.79c-3.235 0-5.987 1.255-7.688 3.474V4.317h-3.01v24.588h3.01V26.08c1.7 2.219 4.453 3.475 7.688 3.475 5.598 0 9.214-3.83 9.214-9.758 0-5.948-3.616-9.79-9.214-9.79M192.314 28.904h3.01V10.656h-3.01zM193.818 4.48c-1.15 0-2.018.855-2.018 1.988 0 1.115.886 1.988 2.018 1.988s2.019-.873 2.019-1.988c0-1.133-.868-1.989-2.019-1.989M200.144 28.904h3.01V4.317h-3.01zM209.86 17.873c.68-3.242 3.203-5.093 6.966-5.093 3.637 0 6.024 1.805 6.752 5.093zm6.936-7.9c-6.262 0-10.152 3.765-10.152 9.823 0 6.04 3.948 9.791 10.303 9.791 3.883 0 6.766-1.047 9.074-3.294l.181-.176-1.986-2.254-.2.2c-1.942 1.957-3.89 2.718-6.948 2.718-4.37 0-7.04-2.243-7.366-6.167h16.859l.048-.205c.035-.15.067-.332.067-.645 0-6.13-3.693-9.79-9.88-9.79z">
      </path>
    </g>
    <path d="M154 32c-7.18 0-13-5.82-13-13s5.82-13 13-13 13 5.82 13 13-5.82 13-13 13zm0-6a7 7 0 100-14 7 7 0 000 14z" fill="url(#q_EoPG__a)" filter="url(#q_EoPG__b)">
    </path>
  </g>
</svg>