<svg viewBox="0 0 80 80" xmlns="http://www.w3.org/2000/svg">
  <g>
    <path d="M40 1.382c21.328 0 38.618 17.29 38.618 38.618S61.328 78.618 40 78.618 1.382 61.328 1.382 40C1.407 18.682 18.682 1.407 40 1.382zM40 0C17.909 0 0 17.909 0 40s17.909 40 40 40 40-17.909 40-40S62.091 0 40 0z">
    </path>
    <g>
      <path d="M55.909 47.956a5.891 5.891 0 00-11.782.054 5.91 5.91 0 005.95 5.88 5.891 5.891 0 005.832-5.934zm-9.067 3.26a4.546 4.546 0 01-1.351-3.21 4.527 4.527 0 114.576 4.521 4.545 4.545 0 01-3.225-1.311z">
      </path>
      <path d="M50.178 50.104l2.738-2.92a.806.806 0 00.234-.58.836.836 0 00-.27-.614.864.864 0 00-1.167-.002l-2.268 2.406-1.099-.77c-.261-.247-.767-.247-1.097.055-.347.357-.347.876-.03 1.204l.088.077 1.746 1.273.186.096a.855.855 0 00.438.027.864.864 0 00.5-.252zm-1.138-1.28l.888-.091-.483-.339zm.153.337a.533.533 0 01.213-.136l-.058.01a.509.509 0 01.105-.023.49.49 0 01.1-.012l-.051.009c.057 0 .113.008.168.026l-.215.647.401-.551-.377-.275z">
      </path>
      <path d="M50.332 55.916a5.027 5.027 0 01-4.915 4.002H31.145a5.027 5.027 0 01-5.009-5.011V23.873a5.027 5.027 0 015.012-5.01h14.307a5.027 5.027 0 015.018 5.012v16.361a.682.682 0 101.363 0V23.873a6.391 6.391 0 00-6.38-6.373h-14.31a6.391 6.391 0 00-6.373 6.37v31.04a6.391 6.391 0 006.37 6.372h14.275a6.391 6.391 0 006.25-5.088.682.682 0 00-1.336-.278z">
      </path>
      <path d="M33.718 23.5h10.318a.682.682 0 100-1.364H33.718a.682.682 0 000 1.364z">
      </path>
    </g>
  </g>
</svg>