<svg viewBox="0 0 13 16" xmlns="http://www.w3.org/2000/svg">
  <path d="M12.25 3.431L8.817.098A.348.348 0 008.575 0H1.372C.615 0 0 .598 0 1.333v13.334C0 15.402.615 16 1.372 16h9.606c.757 0 1.372-.598 1.372-1.333v-11a.328.328 0 00-.1-.236zM5.145 6.333c0-.184.153-.333.343-.333H6.86c.19 0 .343.15.343.333v1.334A.338.338 0 016.861 8H5.49a.338.338 0 01-.343-.333zM2.058 7c0-.551.462-1 1.03-1h1.029c.19 0 .343.15.343.333v1.334A.338.338 0 014.117 8H2.4a.338.338 0 01-.343-.333zm2.059 6.667a.338.338 0 01-.343.333h-.686c-.568 0-1.03-.449-1.03-1v-.667c0-.184.154-.333.343-.333h1.373c.19 0 .343.15.343.333v1.334zm2.744 0a.338.338 0 01-.343.333H5.146a.338.338 0 01-.343-.333v-1.334c0-.184.153-.333.343-.333h1.372c.19 0 .343.15.343.333v1.334zm3.43-.667c0 .551-.461 1-1.028 1H7.89a.338.338 0 01-.343-.333v-2a.339.339 0 00-.343-.334H2.401A.338.338 0 012.058 11V9c0-.184.154-.333.343-.333H9.95c.19 0 .343.149.343.333zm0-5.333A.338.338 0 019.95 8H8.233a.338.338 0 01-.343-.333V6.333c0-.184.154-.333.343-.333h1.03c.567 0 1.029.449 1.029 1z" fill="#fff">
  </path>
</svg>