<svg viewBox="0 0 82 82" xmlns="http://www.w3.org/2000/svg">
  <g>
    <path d="M40.994 81.594c22.423 0 40.6-18.177 40.6-40.6S63.417.394 40.994.394.394 18.57.394 40.994s18.177 40.6 40.6 40.6zm0-1.491c-21.6 0-39.11-17.51-39.11-39.11s17.51-39.108 39.11-39.108 39.109 17.51 39.109 39.109-17.51 39.109-39.11 39.109z">
    </path>
    <path d="M13.997 70.559L68.646 13.11l-1.098-1.044L12.9 69.514z">
    </path>
    <path d="M39.914 45.164l-2.416 17.43c-.117.842 1.04 1.192 1.41.427l11.739-24.284a.745.745 0 00-.671-1.07H39.775l2.931-18.624c.135-.855-1.051-1.214-1.413-.428l-11.74 25.491a.745.745 0 00.677 1.058zm-1.747-6.868a.745.745 0 00.736.862h9.884l-9.163 18.955 1.884-13.592a.745.745 0 00-.738-.848h-9.376l9.003-19.55zM22.238 30.947l4.315 3.163a.745.745 0 00.882-1.202l-4.315-3.164a.745.745 0 10-.882 1.203zM19.485 40.86h5.654a.745.745 0 000-1.49h-5.654a.745.745 0 100 1.49zM20.949 51.022l5.042-2.218a.745.745 0 00-.6-1.365l-5.043 2.218a.745.745 0 10.6 1.365zM59.974 52.841l-4.315-3.163a.745.745 0 00-.882 1.202l4.316 3.164a.745.745 0 10.881-1.203zM62.721 42.927h-5.648a.745.745 0 000 1.491h5.648a.745.745 0 100-1.49zM61.257 32.766l-5.042 2.218a.745.745 0 00.6 1.365l5.043-2.218a.745.745 0 10-.6-1.365z">
    </path>
  </g>
</svg>